<?xml version="1.0" encoding="utf-8"?>
<!-- Generator: Adobe Illustrator 24.3.0, SVG Export Plug-In . SVG Version: 6.00 Build 0)  -->
<svg version="1.1" xmlns="http://www.w3.org/2000/svg" xmlns:xlink="http://www.w3.org/1999/xlink" x="0px" y="0px"
	 width="3402.54px" height="745px" viewBox="0 0 3402.54 745" enable-background="new 0 0 3402.54 745" xml:space="preserve">
<symbol  id="material_x5F_product_x5F_icon_x5F_keylines" viewBox="0 -192 192 192">
	<g opacity="0.4">
		<defs>
			<path id="SVGID_1_" opacity="0.4" d="M0,0v-192h192V0H0z"/>
		</defs>
		<clipPath id="SVGID_2_">
			<use xlink:href="#SVGID_1_"  overflow="visible"/>
		</clipPath>
		<g clip-path="url(#SVGID_2_)">
			<line fill="none" stroke="#000000" stroke-width="0.25" stroke-miterlimit="10" x1="0.25" y1="-0.25" x2="191.75" y2="-191.75"/>
			<g>
				<path d="M191.75-0.25v-191.5H0.25v191.5H191.75 M192,0H0v-192h192V0L192,0z"/>
			</g>
			<line fill="none" stroke="#000000" stroke-width="0.25" stroke-miterlimit="10" x1="191.75" y1="-0.25" x2="0.25" y2="-191.75"/>
			<line fill="none" stroke="#000000" stroke-width="0.25" stroke-miterlimit="10" x1="124" y1="0" x2="124" y2="-192"/>
			<line fill="none" stroke="#000000" stroke-width="0.25" stroke-miterlimit="10" x1="68" y1="0" x2="68" y2="-192"/>
			<line fill="none" stroke="#000000" stroke-width="0.25" stroke-miterlimit="10" x1="192" y1="-124" x2="0" y2="-124"/>
			<line fill="none" stroke="#000000" stroke-width="0.25" stroke-miterlimit="10" x1="192" y1="-68" x2="0" y2="-68"/>
			<circle fill="none" stroke="#000000" stroke-width="0.25" stroke-miterlimit="10" cx="96" cy="-96" r="40"/>
			<line fill="none" stroke="#000000" stroke-width="0.25" stroke-miterlimit="10" x1="0" y1="-96" x2="192" y2="-96"/>
			<line fill="none" stroke="#000000" stroke-width="0.25" stroke-miterlimit="10" x1="96" y1="0" x2="96" y2="-192"/>
		</g>
		<g clip-path="url(#SVGID_2_)">
			<g>
				<path d="M96-8.25c48.39,0,87.75-39.36,87.75-87.75S144.39-183.75,96-183.75S8.25-144.39,8.25-96S47.61-8.25,96-8.25 M96-8
					C47.4-8,8-47.4,8-96s39.4-88,88-88c48.6,0,88,39.4,88,88S144.6-8,96-8L96-8z"/>
			</g>
		</g>
		<g clip-path="url(#SVGID_2_)">
			<g>
				<path d="M160-20.25c6.48,0,11.75-5.27,11.75-11.75v-128c0-6.48-5.27-11.75-11.75-11.75H32c-6.48,0-11.75,5.27-11.75,11.75v128
					c0,6.48,5.27,11.75,11.75,11.75H160 M160-20H32c-6.6,0-12-5.4-12-12v-128c0-6.6,5.4-12,12-12h128c6.6,0,12,5.4,12,12v128
					C172-25.4,166.6-20,160-20L160-20z"/>
			</g>
		</g>
		<g clip-path="url(#SVGID_2_)">
			<g>
				<path d="M148-8.25c6.48,0,11.75-5.27,11.75-11.75v-152c0-6.48-5.27-11.75-11.75-11.75H44c-6.48,0-11.75,5.27-11.75,11.75v152
					c0,6.48,5.27,11.75,11.75,11.75H148 M148-8H44c-6.6,0-12-5.4-12-12v-152c0-6.6,5.4-12,12-12h104c6.6,0,12,5.4,12,12v152
					C160-13.4,154.6-8,148-8L148-8z"/>
			</g>
		</g>
		<g clip-path="url(#SVGID_2_)">
			<g>
				<path d="M172-32.25c6.48,0,11.75-5.27,11.75-11.75v-104c0-6.48-5.27-11.75-11.75-11.75H20c-6.48,0-11.75,5.27-11.75,11.75v104
					c0,6.48,5.27,11.75,11.75,11.75H172 M172-32H20c-6.6,0-12-5.4-12-12v-104c0-6.6,5.4-12,12-12h152c6.6,0,12,5.4,12,12v104
					C184-37.4,178.6-32,172-32L172-32z"/>
			</g>
		</g>
	</g>
</symbol>
<g id="Product_name">
	<g id="_x28_type_product_name_here_x29_">
		<g>
			<path fill="#5F6368" d="M2747.08,421.13v142.1H2702V212.39h119.56c30.38,0,56.18,10.13,77.42,30.38
				c21.56,20.26,32.34,44.92,32.34,73.99c0,29.73-10.78,54.56-32.34,74.48c-20.91,19.93-46.72,29.89-77.42,29.89H2747.08z
				 M2747.08,255.51v122.5h75.46c17.96,0,32.83-6.04,44.59-18.13c12.08-12.08,18.13-26.46,18.13-43.12
				c0-16.33-6.05-30.54-18.13-42.63c-11.76-12.41-26.63-18.62-44.59-18.62H2747.08z"/>
			<path fill="#5F6368" d="M3049.31,315.29c33.32,0,59.61,8.9,78.89,26.71c19.27,17.81,28.91,42.22,28.91,73.25v147.98h-43.12
				v-33.32h-1.96c-18.62,27.44-43.45,41.16-74.48,41.16c-26.46,0-48.59-7.84-66.4-23.52c-17.81-15.68-26.71-35.28-26.71-58.8
				c0-24.82,9.39-44.59,28.17-59.29c18.78-14.7,43.86-22.05,75.22-22.05c26.78,0,48.83,4.9,66.15,14.7v-10.29
				c0-15.68-6.21-28.99-18.62-39.93c-12.42-10.94-26.95-16.42-43.61-16.42c-25.16,0-45.08,10.62-59.78,31.85l-39.69-24.99
				C2974.17,330.97,3006.51,315.29,3049.31,315.29z M2991,489.73c0,11.76,4.98,21.56,14.95,29.4c9.96,7.84,21.64,11.76,35.04,11.76
				c18.94,0,35.85-7.02,50.71-21.07c14.86-14.04,22.29-30.54,22.29-49.49c-14.05-11.1-33.65-16.66-58.8-16.66
				c-18.3,0-33.57,4.41-45.82,13.23C2997.12,465.72,2991,476.67,2991,489.73z"/>
			<path fill="#5F6368" d="M3402.55,323.13l-150.43,345.94h-46.55l55.86-121.03l-98.98-224.91h49l71.54,172.48h0.98l69.58-172.48
				H3402.55z"/>
		</g>
	</g>
</g>
<g id="Google_logo">
	<g id="_x31_570x512px">
		<path fill="#5F6368" d="M1179.4,409.36v-54.25h181.59c1.85,9.56,2.94,20.94,2.94,33.26c0,40.69-11.14,91.06-46.97,126.91
			c-34.87,36.33-79.42,55.7-138.5,55.7c-109.44,0-201.45-89.13-201.45-198.6c0-109.47,92.01-198.6,201.45-198.6
			c60.53,0,103.63,23.74,136.08,54.74l-38.26,38.27c-23.25-21.8-54.72-38.75-97.82-38.75c-79.9,0-142.37,64.42-142.37,144.35
			s62.47,144.35,142.37,144.35c51.82,0,81.36-20.83,100.24-39.72c15.39-15.39,25.52-37.47,29.46-67.65L1179.4,409.36z"/>
		<path fill="#5F6368" d="M1640.64,443.11c0,73.63-57.63,127.88-128.33,127.88c-70.7,0-128.33-54.25-128.33-127.88
			c0-74.11,57.63-127.88,128.33-127.88C1583.02,315.23,1640.64,368.99,1640.64,443.11z M1584.47,443.11
			c0-46.02-33.41-77.5-72.15-77.5c-38.74,0-72.16,31.48-72.16,77.5c0,45.53,33.41,77.5,72.16,77.5
			C1551.06,520.61,1584.47,488.64,1584.47,443.11z"/>
		<path fill="#5F6368" d="M1920.59,443.11c0,73.63-57.63,127.88-128.33,127.88c-70.7,0-128.33-54.25-128.33-127.88
			c0-74.11,57.63-127.88,128.33-127.88C1862.97,315.23,1920.59,368.99,1920.59,443.11z M1864.42,443.11
			c0-46.02-33.41-77.5-72.15-77.5c-38.74,0-72.16,31.48-72.16,77.5c0,45.53,33.41,77.5,72.16,77.5
			C1831.01,520.61,1864.42,488.64,1864.42,443.11z"/>
		<path fill="#5F6368" d="M2188.93,322.97v229.6c0,94.46-55.69,133.21-121.55,133.21c-61.99,0-99.27-41.66-113.32-75.56l48.91-20.35
			c8.72,20.83,30.02,45.53,64.41,45.53c42.13,0,68.28-26.16,68.28-75.08v-18.41h-1.94c-12.59,15.5-36.8,29.06-67.31,29.06
			c-63.93,0-122.52-55.7-122.52-127.39c0-72.18,58.59-128.36,122.52-128.36c30.51,0,54.72,13.56,67.31,28.58h1.94v-20.83H2188.93z
			 M2139.53,443.59c0-45.05-30.03-77.99-68.28-77.99c-38.74,0-71.19,32.94-71.19,77.99c0,44.56,32.44,77.02,71.19,77.02
			C2109.51,520.61,2139.53,488.15,2139.53,443.59z"/>
		<path fill="#5F6368" d="M2284.07,188.61v374.63h-56.17V188.61H2284.07z"/>
		<path fill="#5F6368" d="M2501,485.24l43.58,29.06c-14.05,20.83-47.94,56.67-106.54,56.67c-72.64,0-126.88-56.19-126.88-127.88
			c0-76.05,54.72-127.88,120.58-127.88c66.35,0,98.79,52.8,109.45,81.38l5.81,14.53l-170.95,70.72
			c13.08,25.67,33.42,38.75,61.99,38.75C2466.61,520.61,2486.47,506.56,2501,485.24z M2366.85,439.23l114.28-47.47
			c-6.3-15.98-25.18-27.12-47.46-27.12C2405.11,364.63,2365.4,389.82,2366.85,439.23z"/>
	</g>
</g>
<g id="Product_icon_grid" display="none">
	
		<use xlink:href="#material_x5F_product_x5F_icon_x5F_keylines"  width="192" height="192" x="0" y="-192" transform="matrix(3.8802 0 0 -3.8802 0 0)" display="inline" overflow="visible"/>
</g>
<g id="Product_icon">
	<g>
		<rect id="bounding_box" y="0" fill="none" width="745" height="745"/>
		<g id="art_layer">
			<linearGradient id="Google_Red_1_" gradientUnits="userSpaceOnUse" x1="432.8084" y1="314.2962" x2="683.3943" y2="405.502">
				<stop  offset="0.2" style="stop-color:#D93025"/>
				<stop  offset="0.6" style="stop-color:#EA4335"/>
			</linearGradient>
			<path id="Google_Red" fill="url(#Google_Red_1_)" d="M390.58,432.75l168.86-292.48l91.95,53.09
				c59.39,34.29,79.74,110.23,45.45,169.61l-95.07,164.67c-21.43,37.12-68.89,49.83-106.01,28.41l-85.34-49.27
				C384.5,491.82,375.61,458.67,390.58,432.75z"/>
			<path id="Google_Yellow" fill="#FDBD00" d="M372.6,229.72L162.58,593.49l91.95,53.09c59.39,34.29,135.33,13.94,169.61-45.45
				l136.23-235.96c21.43-37.12,8.71-84.58-28.41-106.01l-85.34-49.27C420.71,194.92,387.57,203.8,372.6,229.72z"/>
			<path id="Google_Green" fill="#2DA94F" d="M559.44,140.27l-65.07-37.57c-74.23-42.86-169.16-17.42-212.02,56.81L161.64,368.59
				c-21.43,37.12-8.71,84.58,28.41,106.01l65.07,37.57c37.12,21.43,84.58,8.71,106.01-28.41l144.12-249.62l0,0
				c29.93-51.85,96.23-69.61,148.07-39.68"/>
			<linearGradient id="Google_Blue_1_" gradientUnits="userSpaceOnUse" x1="52.3812" y1="343.8066" x2="331.5313" y2="445.409">
				<stop  offset="0.2" style="stop-color:#4285F4"/>
				<stop  offset="0.8" style="stop-color:#1B74E8"/>
			</linearGradient>
			<path id="Google_Blue" fill="url(#Google_Blue_1_)" d="M301.08,220.79l-71.81-41.36c-32.01-18.44-72.95-7.5-91.43,24.44
				l-86.18,148.9C9.22,426.08,34.4,519.8,107.89,562.12l54.69,31.5l66.31,38.19l28.78,16.55c-51.1-34.21-67.31-102.72-36.08-156.67
				l22.3-38.52L325.58,312C344.07,280.07,333.1,239.23,301.08,220.79z"/>
		</g>
	</g>
</g>
<g id="Guides_1_">
</g>
<g id="specs">
</g>
</svg>
